<?xml version="1.0" standalone="no"?>
<!DOCTYPE svg PUBLIC "-//W3C//DTD SVG 20010904//EN"
 "http://www.w3.org/TR/2001/REC-SVG-20010904/DTD/svg10.dtd">
<svg version="1.0" xmlns="http://www.w3.org/2000/svg"
 width="931.000000pt" height="980.000000pt" viewBox="0 0 931.000000 980.000000"
 preserveAspectRatio="xMidYMid meet">

<g transform="translate(0.000000,980.000000) scale(0.100000,-0.100000)"
fill="#000000" stroke="none">
<path d="M0 4900 l0 -4900 4655 0 4655 0 0 4900 0 4900 -4655 0 -4655 0 0
-4900z m9300 0 l0 -4890 -4645 0 -4645 0 0 4890 0 4890 4645 0 4645 0 0 -4890z"/>
<path d="M8036 8617 c-93 -232 -157 -409 -152 -419 3 -7 13 -23 22 -35 16 -23
16 -23 -27 -23 -160 -1 -361 -108 -471 -251 -235 -304 -159 -743 165 -955 40
-26 74 -49 75 -50 2 -1 -3 -33 -11 -71 -27 -118 -97 -531 -97 -571 0 -9 -64
102 -151 261 -156 286 -324 512 -534 722 -397 397 -908 679 -1447 799 -1303
289 -2629 -327 -3260 -1514 -180 -337 -288 -704 -329 -1115 -15 -152 -6 -521
16 -665 61 -392 193 -773 374 -1078 17 -29 31 -57 31 -61 0 -4 22 -46 49 -92
26 -46 124 -214 216 -374 93 -159 185 -319 205 -355 20 -36 79 -137 130 -225
51 -88 111 -191 133 -230 22 -38 111 -191 197 -340 197 -338 371 -639 423
-730 77 -137 461 -789 519 -882 21 -34 38 -66 38 -70 1 -5 10 -19 21 -32 16
-20 22 -22 29 -11 7 11 11 8 21 -13 13 -29 4 -51 -11 -27 -6 8 -10 11 -10 7 0
-5 10 -21 21 -35 20 -25 21 -25 15 -4 -7 20 -4 22 28 22 19 0 37 4 40 9 9 14
-17 29 -46 25 -30 -3 -34 8 -22 53 5 19 13 23 45 23 35 0 39 3 39 25 0 14 4
25 9 25 12 0 71 59 71 71 0 5 18 9 40 9 22 0 40 4 40 9 0 17 61 71 80 71 19 0
80 54 80 71 0 5 4 9 9 9 12 0 71 59 71 71 0 5 18 9 40 9 l40 0 0 40 0 40 40 0
c29 0 40 4 40 15 0 11 11 15 40 15 36 0 40 3 40 25 0 14 4 25 9 25 12 0 71 59
71 71 0 5 4 9 9 9 5 0 23 14 40 31 17 17 31 35 31 40 0 5 18 9 40 9 36 0 40 3
40 25 0 23 4 25 40 25 29 0 40 4 40 15 0 8 4 15 9 15 12 0 71 59 71 71 0 5 4
9 9 9 12 0 71 59 71 71 0 5 18 9 40 9 30 0 40 -4 40 -16 0 -14 2 -15 17 -3 15
13 15 14 0 17 -12 3 -17 14 -17 43 0 39 0 39 40 39 29 0 40 4 40 15 0 11 11
15 40 15 36 0 40 3 40 25 0 14 4 25 9 25 12 0 71 59 71 71 0 5 4 9 9 9 12 0
71 59 71 71 0 5 18 9 40 9 36 0 40 3 40 25 0 23 4 25 40 25 29 0 40 4 40 15 0
8 4 15 9 15 12 0 71 59 71 71 0 5 4 9 9 9 12 0 71 59 71 71 0 5 11 9 23 9 29
0 57 29 57 58 0 19 6 22 40 22 36 0 40 3 40 25 0 23 4 25 40 25 29 0 40 4 40
15 0 8 4 15 9 15 12 0 71 59 71 71 0 5 4 9 9 9 12 0 71 59 71 71 0 5 18 9 40
9 36 0 40 3 40 25 0 25 1 25 80 25 64 0 80 3 80 15 0 9 -9 15 -25 15 -14 0
-25 4 -25 9 0 5 11 18 25 29 14 11 25 25 25 31 0 6 4 11 9 11 20 0 71 62 71
86 0 21 4 24 40 24 36 0 40 3 40 25 0 23 4 25 40 25 36 0 40 3 40 25 0 23 4
25 40 25 29 0 40 4 40 15 0 8 4 15 9 15 12 0 71 59 71 71 0 5 4 9 9 9 12 0 71
59 71 71 0 5 11 9 23 9 29 0 57 29 57 58 0 19 6 22 40 22 29 0 40 -4 40 -15 0
-11 11 -15 40 -15 29 0 40 4 40 15 0 9 -9 15 -25 15 -14 0 -25 4 -25 9 0 5 11
18 25 29 14 11 25 25 25 31 0 6 4 11 9 11 12 0 71 59 71 71 0 5 4 9 9 9 12 0
71 59 71 71 0 5 18 9 40 9 l40 0 0 40 0 40 49 0 c42 0 54 5 80 31 17 17 31 35
31 40 0 5 4 9 9 9 12 0 71 59 71 71 0 5 11 9 23 9 29 0 57 29 57 58 0 19 6 22
40 22 29 0 40 -4 40 -15 0 -11 11 -15 40 -15 29 0 40 4 40 15 0 9 -9 15 -25
15 -14 0 -25 4 -25 9 0 5 11 18 25 29 14 11 25 25 25 31 0 6 4 11 9 11 12 0
71 59 71 71 0 5 4 9 9 9 12 0 71 59 71 71 0 5 18 9 40 9 l40 0 0 40 0 40 49 0
c42 0 54 5 80 31 17 17 31 35 31 40 0 5 4 9 9 9 12 0 71 59 71 71 0 5 4 9 9 9
12 0 67 55 75 75 4 11 13 14 33 9 l28 -7 -27 28 c-16 15 -28 35 -28 44 0 12 6
10 21 -9 37 -47 41 -58 22 -69 -10 -6 -12 -11 -5 -11 6 0 13 -12 13 -27 1 -17
3 -21 6 -10 7 25 19 21 43 -14 12 -16 25 -28 28 -25 2 3 -1 13 -8 21 -7 9 -25
39 -40 68 -15 29 -50 93 -79 142 -28 50 -61 110 -74 135 -12 25 -25 47 -28 50
-3 3 -37 61 -76 130 -39 69 -159 280 -268 470 -109 190 -215 374 -235 410 -20
36 -72 126 -115 200 -43 74 -95 164 -115 200 -20 36 -76 133 -125 215 l-87
150 11 130 c15 172 44 374 82 570 l30 160 99 -3 c311 -11 577 191 656 498 22
85 22 235 -1 320 -23 89 -85 205 -146 273 l-51 57 29 0 c15 0 33 4 38 8 17 11
177 434 168 442 -4 4 -102 44 -218 88 -115 45 -238 92 -273 106 l-63 25 -13
-32z m-2856 -702 c597 -92 1106 -341 1523 -744 305 -295 518 -618 674 -1020
24 -62 42 -115 40 -117 -2 -2 -28 52 -57 121 -218 515 -634 997 -1126 1307
-515 323 -1151 489 -1730 450 -87 -6 -160 -10 -162 -8 -1 2 41 9 95 15 54 6
114 13 133 15 84 10 510 -3 610 -19z m-60 -199 c294 -41 555 -122 820 -255
572 -287 1014 -777 1257 -1396 67 -171 78 -222 15 -75 -103 245 -230 460 -392
670 -89 115 -323 351 -440 444 -389 310 -842 505 -1350 583 -125 19 -546 25
-689 10 -41 -4 -73 -5 -70 -3 4 5 207 32 299 40 89 8 447 -4 550 -18z m-170
-191 c453 -27 951 -223 1315 -519 351 -284 623 -671 779 -1106 58 -162 69
-216 17 -80 -293 757 -883 1320 -1637 1563 -305 98 -673 142 -979 118 -77 -6
-156 -14 -175 -18 -19 -3 -32 -3 -29 1 10 11 208 37 344 45 126 8 167 8 365
-4z m120 -221 c782 -118 1415 -611 1728 -1344 50 -118 127 -338 120 -345 -2
-2 -23 49 -47 113 -196 530 -574 980 -1051 1254 -262 150 -553 250 -865 294
-150 22 -498 25 -633 5 -51 -7 -96 -11 -98 -8 -6 6 188 36 305 47 120 12 415
3 541 -16z m-863 -40 c-3 -3 -12 -4 -19 -1 -8 3 -5 6 6 6 11 1 17 -2 13 -5z
m883 -172 c718 -130 1275 -593 1553 -1292 45 -112 112 -328 105 -336 -2 -2
-17 36 -32 84 -168 519 -519 968 -968 1235 -275 164 -590 266 -923 298 -145
14 -422 6 -554 -16 -52 -9 -99 -14 -105 -12 -13 4 132 33 239 46 44 6 94 13
110 15 17 2 127 3 245 1 164 -2 242 -7 330 -23z m-175 -182 c434 -50 819 -233
1114 -530 238 -239 412 -542 515 -898 47 -162 45 -177 -5 -32 -269 791 -854
1296 -1640 1416 -150 23 -460 23 -609 1 -173 -27 -189 -28 -110 -8 68 17 232
45 320 54 79 8 331 6 415 -3z m-75 -200 c430 -38 785 -208 1077 -514 172 -181
319 -427 406 -681 45 -131 92 -313 84 -322 -3 -2 -8 11 -12 29 -15 70 -69 227
-111 326 -221 511 -618 884 -1106 1041 -311 99 -667 119 -991 55 -108 -22
-108 -11 0 15 223 51 447 69 653 51z m-753 -86 c-3 -3 -12 -4 -19 -1 -8 3 -5
6 6 6 11 1 17 -2 13 -5z m876 -144 c605 -103 1034 -532 1202 -1199 13 -53 26
-118 30 -146 4 -32 -5 -11 -24 60 -95 352 -242 616 -468 836 -207 203 -433
325 -729 395 -114 27 -130 29 -364 28 -228 0 -254 -2 -370 -27 -69 -15 -136
-29 -150 -32 -14 -3 0 4 30 15 60 22 259 66 360 79 127 16 360 12 483 -9z m72
-273 c320 -85 572 -290 716 -582 35 -70 70 -161 86 -220 23 -88 26 -120 27
-260 0 -143 -3 -171 -28 -270 -82 -320 -300 -590 -592 -731 -349 -168 -754
-141 -1080 71 -241 157 -411 402 -476 688 -40 176 -27 414 34 592 131 381 480
672 883 735 104 16 328 4 430 -23z m2609 -271 c29 -72 35 -102 41 -198 8 -129
-7 -222 -55 -346 -58 -150 -116 -226 -308 -405 -50 -47 -61 -63 -56 -81 4 -19
-14 -41 -111 -132 -114 -108 -115 -110 -105 -140 7 -21 8 -39 1 -56 -9 -23
-212 -200 -438 -382 -40 -32 -73 -61 -73 -65 0 -3 59 -85 131 -181 117 -158
128 -176 112 -187 -9 -7 -22 -13 -27 -12 -9 0 -202 225 -266 310 -15 19 -16
19 -55 -10 -28 -22 -51 -31 -79 -31 -34 0 -45 7 -90 53 -88 90 -106 116 -106
153 0 40 -7 32 264 314 253 263 310 322 327 331 26 14 58 11 89 -8 l28 -16
114 107 c92 88 117 106 137 103 35 -7 217 154 277 245 98 146 120 245 128 553
3 121 9 240 13 265 l7 45 33 -72 c18 -40 49 -110 67 -157z m-4219 -1061 c303
-809 1044 -1206 1900 -1020 61 13 121 27 135 29 14 3 -9 -5 -50 -19 -118 -39
-296 -74 -449 -87 -293 -25 -569 28 -821 158 -336 173 -588 484 -724 889 -34
101 -73 255 -81 320 -3 32 5 10 23 -60 16 -60 46 -155 67 -210z m-298 193 c-3
-8 -6 -5 -6 6 -1 11 2 17 5 13 3 -3 4 -12 1 -19z m3080 -10 c-3 -8 -6 -5 -6 6
-1 11 2 17 5 13 3 -3 4 -12 1 -19z m-2985 -268 c170 -437 461 -774 848 -983
357 -193 806 -259 1240 -183 144 26 158 27 85 6 -176 -50 -298 -64 -540 -64
-177 0 -251 4 -322 17 -689 130 -1182 612 -1378 1347 -32 120 -31 151 1 45 14
-44 43 -127 66 -185z m-144 -190 c295 -666 880 -1105 1595 -1196 175 -22 469
-15 641 15 66 12 121 20 123 17 5 -5 -188 -44 -302 -60 -417 -60 -810 1 -1165
179 -478 240 -821 674 -986 1248 -46 161 -42 169 10 17 23 -69 61 -168 84
-220z m-263 128 c263 -801 896 -1363 1698 -1508 259 -47 601 -45 847 5 18 4
21 3 10 -4 -26 -16 -258 -51 -414 -63 -114 -9 -185 -9 -300 0 -526 42 -962
243 -1317 609 -240 247 -412 549 -523 916 -38 123 -38 127 -32 127 2 0 16 -37
31 -82z m-101 -318 c15 -36 51 -108 78 -160 358 -669 964 -1108 1713 -1241 87
-15 179 -23 335 -26 193 -5 256 -2 464 22 l41 5 -40 -11 c-162 -41 -559 -62
-756 -40 -276 32 -517 102 -758 221 -548 273 -945 746 -1147 1370 -45 138 -42
150 5 25 21 -55 50 -129 65 -165z m-229 10 c132 -334 327 -632 580 -886 231
-232 446 -386 730 -520 220 -104 481 -183 725 -219 154 -23 484 -31 634 -16
65 7 120 11 122 8 11 -10 -266 -40 -421 -44 -566 -17 -1095 151 -1545 490
-127 96 -358 328 -450 452 -173 233 -294 463 -386 729 -19 55 -34 102 -34 105
0 11 10 -11 45 -99z m-175 -110 c335 -837 1057 -1463 1925 -1670 308 -73 586
-93 945 -66 l65 5 -80 -15 c-133 -24 -552 -30 -715 -10 -299 38 -563 117 -835
250 -621 305 -1070 816 -1316 1499 -37 102 -44 126 -35 116 2 -2 23 -51 46
-109z m-128 -215 c216 -491 593 -936 1053 -1240 373 -247 758 -396 1210 -467
121 -19 181 -22 435 -23 313 0 318 -6 23 -25 -446 -30 -925 60 -1331 251 -585
274 -1042 728 -1322 1314 -61 126 -141 324 -139 343 0 8 1 7 71 -153z m2091
-3772 c-7 -2 -19 -2 -25 0 -7 3 -2 5 12 5 14 0 19 -2 13 -5z"/>
<path d="M4651 6089 c-386 -47 -709 -330 -814 -713 -19 -69 -22 -106 -21 -246
0 -150 3 -173 27 -253 84 -272 257 -478 501 -598 158 -77 231 -93 421 -93 133
0 173 4 239 22 86 24 237 93 302 138 204 142 350 363 399 605 23 113 17 321
-14 434 -94 351 -394 628 -751 694 -86 16 -208 20 -289 10z m159 -909 c28 -28
25 -64 -6 -89 -15 -12 -33 -21 -41 -21 -21 0 -63 46 -63 70 0 28 35 60 65 60
14 0 34 -9 45 -20z"/>
<path d="M8800 3784 c0 -14 3 -14 15 -4 8 7 15 14 15 16 0 2 -7 4 -15 4 -8 0
-15 -7 -15 -16z"/>
<path d="M8720 3704 c0 -14 3 -14 15 -4 8 7 15 14 15 16 0 2 -7 4 -15 4 -8 0
-15 -7 -15 -16z"/>
<path d="M8400 3464 c0 -14 3 -14 15 -4 8 7 15 14 15 16 0 2 -7 4 -15 4 -8 0
-15 -7 -15 -16z"/>
<path d="M8080 3224 c0 -14 3 -14 15 -4 8 7 15 14 15 16 0 2 -7 4 -15 4 -8 0
-15 -7 -15 -16z"/>
<path d="M8000 3144 c0 -14 3 -14 15 -4 8 7 15 14 15 16 0 2 -7 4 -15 4 -8 0
-15 -7 -15 -16z"/>
<path d="M7680 2904 c0 -14 3 -14 15 -4 8 7 15 14 15 16 0 2 -7 4 -15 4 -8 0
-15 -7 -15 -16z"/>
<path d="M7280 2584 c0 -14 3 -14 15 -4 8 7 15 14 15 16 0 2 -7 4 -15 4 -8 0
-15 -7 -15 -16z"/>
<path d="M6960 2344 c0 -14 3 -14 15 -4 8 7 15 14 15 16 0 2 -7 4 -15 4 -8 0
-15 -7 -15 -16z"/>
<path d="M6880 2264 c0 -14 3 -14 15 -4 8 7 15 14 15 16 0 2 -7 4 -15 4 -8 0
-15 -7 -15 -16z"/>
<path d="M6560 2024 c0 -14 3 -14 15 -4 8 7 15 14 15 16 0 2 -7 4 -15 4 -8 0
-15 -7 -15 -16z"/>
<path d="M6240 1784 c0 -14 3 -14 15 -4 8 7 15 14 15 16 0 2 -7 4 -15 4 -8 0
-15 -7 -15 -16z"/>
<path d="M6160 1704 c0 -14 3 -14 15 -4 8 7 15 14 15 16 0 2 -7 4 -15 4 -8 0
-15 -7 -15 -16z"/>
<path d="M5840 1464 c0 -14 3 -14 15 -4 8 7 15 14 15 16 0 2 -7 4 -15 4 -8 0
-15 -7 -15 -16z"/>
<path d="M5440 1144 c0 -14 3 -14 15 -4 8 7 15 14 15 16 0 2 -7 4 -15 4 -8 0
-15 -7 -15 -16z"/>
<path d="M5120 904 c0 -14 3 -14 15 -4 8 7 15 14 15 16 0 2 -7 4 -15 4 -8 0
-15 -7 -15 -16z"/>
<path d="M5040 824 c0 -14 3 -14 15 -4 8 7 15 14 15 16 0 2 -7 4 -15 4 -8 0
-15 -7 -15 -16z"/>
<path d="M4720 584 c0 -14 3 -14 15 -4 8 7 15 14 15 16 0 2 -7 4 -15 4 -8 0
-15 -7 -15 -16z"/>
<path d="M4400 344 c0 -14 3 -14 15 -4 8 7 15 14 15 16 0 2 -7 4 -15 4 -8 0
-15 -7 -15 -16z"/>
<path d="M4320 264 c0 -14 3 -14 15 -4 8 7 15 14 15 16 0 2 -7 4 -15 4 -8 0
-15 -7 -15 -16z"/>
<path d="M4250 256 c0 -2 7 -6 15 -10 8 -3 15 -1 15 4 0 6 -7 10 -15 10 -8 0
-15 -2 -15 -4z"/>
</g>
</svg>
